<svg width="1024" height="1024" viewBox="0 0 1024 1024" fill="none" xmlns="http://www.w3.org/2000/svg">
<path d="M425.033 702.365C425.108 703.339 425.838 704.554 427.226 706.008C456.669 736.745 492.554 750.226 534.878 746.451C557.989 744.386 579.234 737.823 598.613 726.762C631.607 707.92 655.428 680.664 670.076 644.996C681.371 617.488 685.268 588.903 681.767 559.24C680.025 544.544 676.281 530.386 670.534 516.764C665.596 505.059 658.805 494.209 650.16 484.214C649.161 483.057 648.121 482.256 647.039 481.81C646.114 474.491 646.098 467.177 646.99 459.866C651.217 459.792 654.041 457.805 655.461 453.906C656.213 451.833 656.588 449.363 656.588 446.497V201.186C656.588 191.471 655.973 184.491 654.743 180.245C652.447 172.348 613.715 184.575 607.506 178.57C598.44 169.789 622.512 146.154 610.763 146.022C579.387 145.667 546.867 145.568 513.204 145.725C512.984 145.728 512.77 145.645 512.609 145.493C512.447 145.34 512.35 145.13 512.337 144.907C512.089 140.983 511.965 136.812 511.965 132.392C511.974 121.109 507.465 112.225 498.441 105.74C493.222 101.99 488.037 100.135 482.885 100.177C471.012 100.276 445.506 100.177 445.506 100.177C445.506 100.177 398.892 100.185 396.523 100.177C322.021 99.9453 247.524 99.9412 173.031 100.164C169.043 100.172 166.107 100.367 164.225 100.747C161.203 101.341 158.408 102.366 155.84 103.819C148.054 108.198 143.05 114.248 140.829 121.972C139.97 124.954 139.504 132.351 139.43 144.164C139.141 187.919 139.062 232.109 139.194 276.732C139.198 277.414 139.194 327.07 139.194 327.07C125.344 348 123.039 352.932 122.09 371.5C121.188 389.14 126.844 413.5 148.344 424C143.844 436.5 125.344 448.5 122.09 473.992C122.844 507 133.761 519.7 128.844 548.5C121.844 589.5 119.576 614.758 139.516 639.482C158.788 663.388 183.125 679.9 212.527 689.02C236.365 696.413 261.139 697.541 286.851 692.403C288.04 692.163 289.229 692.126 290.418 692.291C300.508 693.654 310.916 693.423 321.641 691.597C343.076 687.954 362.463 679.235 379.802 665.44C379.879 665.378 379.966 665.331 380.061 665.303C380.155 665.275 380.254 665.265 380.352 665.276C380.45 665.286 380.545 665.316 380.631 665.363C380.718 665.411 380.794 665.475 380.855 665.552C391.317 678.455 403.756 689.28 418.172 698.028C421.879 700.275 424.166 701.72 425.033 702.365Z" fill="#BFF164"/>
<path d="M682 100C689.18 100 695 94.1797 695 87C695 79.8203 689.18 74 682 74C674.82 74 669 79.8203 669 87C669 94.1797 674.82 100 682 100Z" fill="#0E1013"/>
<path fill-rule="evenodd" clip-rule="evenodd" d="M224.195 356.207C216.172 350.18 207.72 346.472 198.837 345.082C198.742 345.061 197.473 345.056 195.033 345.066C193.037 345.077 192.151 344.005 192.374 341.852C192.565 339.952 192.661 338.934 192.661 338.796V164.48C192.661 157.255 196.11 152.083 203.008 148.963C205.332 147.913 209.311 147.393 214.947 147.404C314.171 147.648 413.396 147.77 512.621 147.77C516.081 147.77 519.084 147.722 521.631 147.626C525.738 147.478 528.747 147.414 530.657 147.436C552.401 147.754 574.146 147.871 595.89 147.786C600.22 147.775 603.499 148.38 605.728 149.6C609.018 151.404 611.31 154.093 612.605 157.669C613.337 159.674 613.703 162.926 613.703 167.425V177.308C613.703 177.452 613.675 177.595 613.62 177.728C613.564 177.861 613.483 177.982 613.382 178.084C613.28 178.186 613.158 178.267 613.025 178.322C612.892 178.377 612.749 178.406 612.605 178.406H400.699C384.271 178.406 374.014 178.804 369.928 179.599C359.316 181.658 349.871 186.331 341.594 193.62C329.846 203.976 322.916 217.312 320.804 233.63C320.775 233.872 320.689 234.103 320.553 234.305C320.418 234.507 320.236 234.674 320.024 234.792C315.535 237.307 310.993 239.71 306.398 242.002C289.768 250.309 274.927 261.062 261.874 274.261C239.45 296.924 227.305 324.048 225.437 355.634C225.384 356.589 224.97 356.78 224.195 356.207ZM258.006 339.162C261.497 323.236 268.777 309.311 279.846 297.385C291.031 285.333 304.021 275.593 318.814 268.166C318.937 268.103 319.074 268.074 319.212 268.079C319.35 268.085 319.484 268.125 319.602 268.197C319.72 268.268 319.818 268.369 319.886 268.489C319.954 268.609 319.991 268.744 319.992 268.882C320.236 287.736 320.242 306.117 320.008 324.027C319.955 328.218 319.547 331.04 318.782 332.494C312.394 344.653 302.954 355.989 290.464 366.504C280.775 374.652 269.955 381.612 258.006 387.384C257.886 387.442 257.753 387.471 257.62 387.468C257.486 387.465 257.354 387.431 257.235 387.367C257.116 387.304 257.013 387.213 256.934 387.103C256.855 386.993 256.803 386.866 256.78 386.732C254.201 370.467 254.61 354.61 258.006 339.162ZM175.214 396.837C174.036 395.172 173.33 393.315 173.097 391.267C172.301 386.026 173.49 381.92 176.663 378.949C179.263 376.519 182.85 375.23 187.424 375.082C193.398 374.901 199.224 376.615 204.902 380.222C213.509 385.708 220.258 392.18 225.15 399.638C225.203 399.719 225.236 399.81 225.249 399.905C225.262 400 225.254 400.097 225.225 400.187C225.196 400.277 225.147 400.359 225.081 400.427C225.016 400.495 224.936 400.546 224.848 400.577C218.056 402.997 211.752 406.333 205.937 410.588C205.509 410.901 205.014 411.093 204.504 411.145C191.653 412.407 181.889 407.638 175.214 396.837ZM319.18 404.142L302.53 395.23C302.434 395.176 302.352 395.099 302.293 395.006C302.234 394.913 302.199 394.807 302.193 394.699C302.187 394.592 302.208 394.486 302.256 394.392C302.304 394.298 302.376 394.219 302.466 394.164C308.77 390.143 314.437 385.522 319.467 380.302C319.849 379.899 320.045 379.968 320.056 380.509L320.358 403.506C320.36 403.636 320.326 403.763 320.259 403.874C320.193 403.985 320.095 404.078 319.976 404.142C319.858 404.206 319.722 404.24 319.583 404.24C319.443 404.24 319.305 404.206 319.18 404.142ZM349.887 849.345C341.259 852.39 332.361 854.226 323.192 854.852C298.667 856.528 274.625 852.295 251.065 842.151C216.002 827.054 189.403 802.985 171.266 769.946C161.132 751.463 154.892 731.331 152.546 709.549C149.692 683.119 152.451 657.528 160.824 632.775C164.623 621.539 169.277 609.365 174.784 596.251C184.41 573.302 188.002 549.413 185.561 524.586C184.882 517.679 184.155 510.777 183.38 503.881C181.778 489.515 183.842 475.749 189.573 462.582C195.558 448.831 205.555 437.362 219.563 428.174C241.552 413.734 264.819 411.697 289.365 422.063C300.094 426.593 309.789 432.768 318.448 440.587C326.906 448.237 334.547 456.64 341.371 465.797C350.773 478.412 360.123 491.075 369.419 503.785C382.801 522.088 397.26 539.488 412.797 555.986C429.171 572.538 446.496 588.58 464.77 604.113C465.063 604.362 465.254 604.71 465.307 605.088C465.36 605.467 465.271 605.851 465.057 606.166C452.163 625.571 442.707 646.117 436.69 667.804C433.91 677.873 431.968 688.292 430.864 699.061C426.46 742.095 434.881 782.762 456.127 821.064C456.232 821.262 456.262 821.491 456.212 821.708C456.163 821.925 456.036 822.115 455.856 822.242L448.549 827.398C431.782 839.26 413.253 846.889 392.962 850.284C379.867 852.48 366.851 852.093 353.914 849.122C352.573 848.81 351.175 848.888 349.887 849.345ZM643.009 525.652C646.341 508.963 654.03 494.613 666.075 482.603C679.51 469.202 695.317 459.606 713.496 453.813C715.12 453.293 716.727 452.73 718.319 452.126C718.394 452.097 718.475 452.089 718.554 452.101C718.633 452.114 718.707 452.146 718.77 452.196C718.832 452.246 718.881 452.311 718.911 452.385C718.941 452.459 718.951 452.54 718.94 452.619C716.892 465.393 712.424 476.475 705.537 485.865C690.297 506.639 669.662 520.109 643.63 526.273C643.545 526.291 643.456 526.287 643.373 526.262C643.289 526.237 643.214 526.192 643.152 526.13C643.09 526.069 643.045 525.993 643.02 525.909C642.995 525.826 642.991 525.738 643.009 525.652ZM600.586 518.204C593.816 515.34 587.491 511.313 581.612 506.125C577.844 502.804 574.602 499.069 571.885 494.921C571.27 493.977 571.503 493.674 572.586 494.014C585.077 497.908 594.659 505.69 601.335 517.361C601.918 518.369 601.669 518.65 600.586 518.204ZM714.085 862.443C672.75 887.058 628.014 893.015 579.877 880.315C541.8 869.61 511.39 847.87 488.648 815.096C475.107 795.585 466.33 774.476 462.319 751.771C456.291 717.565 459.809 684.981 472.873 654.022C476.969 644.324 482.052 635.03 488.123 626.139C515.948 585.45 555.638 561.907 607.193 555.509C608.774 555.307 609.177 555.901 608.402 557.291C604.73 563.88 603.048 571.164 603.356 579.142C603.369 579.403 603.28 579.659 603.108 579.855C602.936 580.051 602.693 580.172 602.433 580.193C592.85 580.829 584.037 583.004 575.992 586.718C573.297 587.97 571.021 589.344 569.163 590.84C566.871 592.697 565.454 594.744 564.913 596.983C564.192 599.986 565.232 602.601 568.033 604.829C572.48 608.341 577.616 610.961 583.442 612.691C587.05 613.752 592.654 614.834 600.252 615.937C622.729 619.216 644.723 617.269 666.234 610.097C669.354 609.057 672.108 607.407 674.496 605.147C676.841 602.94 677.945 600.527 677.807 597.906C677.648 594.776 676.045 592.208 672.999 590.203C664.987 584.93 656.046 581.721 646.177 580.575C641.89 580.076 639.618 579.811 639.364 579.779C636.509 579.418 633.628 579.179 630.72 579.063C630.59 579.056 630.463 579.022 630.347 578.961C630.232 578.901 630.131 578.817 630.051 578.714C629.971 578.612 629.914 578.493 629.884 578.366C629.853 578.24 629.851 578.108 629.876 577.981C631.638 569.429 635.915 562.914 642.707 558.437C644.893 556.994 647.286 556.411 649.886 556.686C686.148 560.591 717.353 574.681 743.502 598.956C772.145 625.821 788.97 658.711 793.979 697.629C795.868 712.334 795.837 727.103 793.884 741.936C792.515 752.301 790.09 762.619 786.609 772.89C773.492 811.616 749.318 841.467 714.085 862.443Z" fill="#0F1015"/>
<path fill-rule="evenodd" clip-rule="evenodd" d="M811.5 614C804.666 614.796 804.677 580.299 801.206 574.686C800.676 571.684 800.389 565.848 800.347 557.18C799.795 454.561 799.662 369.681 799.949 302.542C800.066 276.006 800.087 256.362 800.013 243.609C799.981 236.904 799.211 231.747 797.704 228.14C795.2 222.113 791.162 217.09 785.59 213.068C780.794 209.599 775.233 207.726 768.908 207.45C760.874 207.1 754.64 206.925 750.204 206.925C631.346 207.01 512.489 206.925 393.631 206.671C384.526 206.649 378.556 207.042 375.723 207.848C358.17 212.846 349.415 224.251 349.457 242.065C349.659 321.396 349.526 382.005 349.059 423.893C349.017 427.797 350.152 430.932 352.466 433.298C354.408 435.293 355.421 436.343 355.506 436.45C368.719 452.927 378.875 466.279 385.974 476.507C413.587 516.337 446.119 551.286 483.57 581.354C483.856 581.583 484.215 581.699 484.579 581.681C484.943 581.664 485.286 581.513 485.544 581.259C508.657 558.607 535.247 542.947 565.311 534.278C566.861 533.822 567.009 533.085 565.757 532.066C553.149 521.806 544.798 508.937 540.701 493.457C539.874 490.316 539.093 487.16 538.361 483.987C537.374 479.701 537.024 476.481 537.311 474.327C538.138 468.269 542.245 464.852 549.632 464.078C578.699 461.022 602.666 469.977 621.535 490.942C621.595 491.009 621.67 491.06 621.754 491.092C621.838 491.123 621.929 491.134 622.018 491.123C622.107 491.112 622.192 491.08 622.266 491.029C622.34 490.978 622.4 490.91 622.442 490.831C638.329 462.375 661.517 442.29 692.006 430.577C701.759 426.832 710.678 421.723 718.765 415.251C720.091 414.19 721.901 412.466 724.193 410.079C726.697 407.469 728.634 405.872 730.003 405.288C734.938 403.198 739.167 403.617 742.69 406.546C744.24 407.84 745.354 409.622 746.033 411.893C746.553 413.622 747.047 415.734 747.514 418.227C753.265 448.518 747.896 476.104 731.404 500.984C723.339 513.143 712.87 523.918 699.997 533.307L696.702 535.201C696.193 535.488 696.224 535.758 696.797 536.013C701.467 538.114 706.142 540.193 710.822 542.252C716.489 544.745 721.1 546.973 724.655 548.936C768.6 573.211 799.026 609.381 815.931 657.443C827.774 694.684 828.915 731.654 819.353 768.354C807.616 813.372 783.325 849.61 746.479 877.069C738 883.392 729.011 889.01 719.513 893.923C692.133 908.087 663.496 915.731 633.601 916.856C598.432 918.182 564.361 910.357 531.389 893.381C530.275 892.554 527.335 890.697 522.57 887.811C504.041 876.575 488.054 862.671 474.608 846.098C474.529 845.999 474.431 845.917 474.32 845.856C474.209 845.795 474.087 845.757 473.961 845.744C473.835 845.73 473.708 845.742 473.587 845.778C473.466 845.815 473.353 845.875 473.255 845.955C450.969 863.674 426.051 874.872 398.502 879.551C384.717 881.896 371.34 882.193 358.372 880.443C356.843 880.23 355.315 880.278 353.787 880.586C320.74 887.185 288.898 885.737 258.261 876.241C220.47 864.528 189.191 843.319 164.421 812.613C138.793 780.858 124.726 745.05 122.222 705.188C119.951 669.125 126.551 634.08 142.024 600.054C143.754 596.235 146.147 590.23 149.203 582.039C156.154 563.429 158.537 544.321 156.351 524.713C156.351 524.692 155.804 521.149 154.711 514.082C152.43 499.228 150.56 485.752 156 469C160.457 455.275 181.5 428.174 181.5 428.174C178 427 155.025 415.403 149 396.837C142.764 377.623 144.343 362.063 161.843 350.7C163.297 349.756 164.018 348.419 164.008 346.69C163.838 289.375 163.939 232.617 164.31 176.416C164.405 161.244 165.005 151.743 166.109 147.913C168.963 137.993 175.395 130.221 185.402 124.598C188.702 122.73 192.295 121.415 196.179 120.651C198.598 120.163 202.371 119.913 207.497 119.903C303.241 119.616 462.245 119.203 558 119.5C574.651 119.924 590.484 120.046 605.744 119.919C612.366 119.866 619.031 122.248 625.738 127.064C637.337 135.393 643.131 146.804 643.12 161.297C643.12 166.974 643.28 172.332 643.598 177.371C643.615 177.658 643.74 177.928 643.947 178.123C644.155 178.319 644.429 178.426 644.712 178.422C687.979 178.22 729.775 178.347 770.102 178.804C785.203 178.973 798.58 184.698 810.232 195.976C818.213 203.689 823.678 212.617 826.628 222.761C828.209 228.214 829 237.179 829 249.657V564.739V635.5C829 635.5 816.933 613.905 811.5 614ZM224.195 356.207C216.172 350.18 207.72 346.472 198.837 345.082C198.742 345.061 197.473 345.056 195.033 345.066C193.037 345.077 192.151 344.005 192.374 341.852C192.565 339.952 192.661 338.934 192.661 338.796V164.48C192.661 157.255 196.11 152.083 203.008 148.963C205.332 147.913 209.311 147.393 214.947 147.404C314.171 147.648 413.396 147.77 512.621 147.77C516.081 147.77 519.084 147.722 521.631 147.626C525.738 147.478 528.747 147.414 530.657 147.436C552.401 147.754 574.146 147.871 595.89 147.786C600.22 147.775 603.499 148.38 605.728 149.6C609.018 151.404 611.31 154.093 612.605 157.669C613.337 159.674 613.703 162.926 613.703 167.425V177.308C613.703 177.452 613.675 177.595 613.62 177.728C613.564 177.861 613.483 177.982 613.382 178.084C613.28 178.186 613.158 178.267 613.025 178.322C612.892 178.377 612.749 178.406 612.605 178.406H400.699C384.271 178.406 374.014 178.804 369.928 179.599C359.316 181.658 349.871 186.331 341.594 193.62C329.846 203.976 322.916 217.312 320.804 233.63C320.775 233.872 320.689 234.103 320.553 234.305C320.418 234.507 320.236 234.674 320.024 234.792C315.535 237.307 310.993 239.71 306.398 242.002C289.768 250.309 274.927 261.062 261.874 274.261C239.45 296.924 227.305 324.048 225.437 355.634C225.384 356.589 224.97 356.78 224.195 356.207ZM258.006 339.162C261.497 323.236 268.777 309.311 279.846 297.385C291.031 285.333 304.021 275.593 318.814 268.166C318.937 268.103 319.074 268.074 319.212 268.079C319.35 268.085 319.484 268.125 319.602 268.197C319.72 268.268 319.818 268.369 319.886 268.489C319.954 268.609 319.991 268.744 319.992 268.882C320.236 287.736 320.242 306.117 320.008 324.027C319.955 328.218 319.547 331.04 318.782 332.494C312.394 344.653 302.954 355.989 290.464 366.504C280.775 374.652 269.955 381.612 258.006 387.384C257.886 387.442 257.753 387.471 257.62 387.468C257.486 387.465 257.354 387.431 257.235 387.367C257.116 387.304 257.013 387.213 256.934 387.103C256.855 386.993 256.803 386.866 256.78 386.732C254.201 370.467 254.61 354.61 258.006 339.162ZM175.214 396.837C174.036 395.172 173.33 393.315 173.097 391.267C172.301 386.026 173.49 381.92 176.663 378.949C179.263 376.519 182.85 375.23 187.424 375.082C193.398 374.901 199.224 376.615 204.902 380.222C213.509 385.708 220.258 392.18 225.15 399.638C225.203 399.719 225.236 399.81 225.249 399.905C225.262 400 225.254 400.097 225.225 400.187C225.196 400.277 225.147 400.359 225.081 400.427C225.016 400.495 224.936 400.546 224.848 400.577C218.056 402.997 211.752 406.333 205.937 410.588C205.509 410.901 205.014 411.093 204.504 411.145C191.653 412.407 181.889 407.638 175.214 396.837ZM319.18 404.142L302.53 395.23C302.434 395.176 302.352 395.099 302.293 395.006C302.234 394.913 302.199 394.807 302.193 394.699C302.187 394.592 302.208 394.486 302.256 394.392C302.304 394.298 302.376 394.219 302.466 394.164C308.77 390.143 314.437 385.522 319.467 380.302C319.849 379.899 320.045 379.968 320.056 380.509L320.358 403.506C320.36 403.636 320.326 403.763 320.259 403.874C320.193 403.985 320.095 404.078 319.976 404.142C319.858 404.206 319.722 404.24 319.583 404.24C319.443 404.24 319.305 404.206 319.18 404.142ZM349.887 849.345C341.259 852.39 332.361 854.226 323.192 854.852C298.667 856.528 274.625 852.295 251.065 842.151C216.002 827.054 189.403 802.985 171.266 769.946C161.132 751.463 154.892 731.331 152.546 709.549C149.692 683.119 152.451 657.528 160.824 632.775C164.623 621.539 169.277 609.365 174.784 596.251C184.41 573.302 188.002 549.413 185.561 524.586C184.882 517.679 184.155 510.777 183.38 503.881C181.778 489.515 183.842 475.749 189.573 462.582C195.558 448.831 205.555 437.362 219.563 428.174C241.552 413.734 264.819 411.697 289.365 422.063C300.094 426.593 309.789 432.768 318.448 440.587C326.906 448.237 334.547 456.64 341.371 465.797C350.773 478.412 360.123 491.075 369.419 503.785C382.801 522.088 397.26 539.488 412.797 555.986C429.171 572.538 446.496 588.58 464.77 604.113C465.063 604.362 465.254 604.71 465.307 605.088C465.36 605.467 465.271 605.851 465.057 606.166C452.163 625.571 442.707 646.117 436.69 667.804C433.91 677.873 431.968 688.292 430.864 699.061C426.46 742.095 434.881 782.762 456.127 821.064C456.232 821.262 456.262 821.491 456.212 821.708C456.163 821.925 456.036 822.115 455.856 822.242L448.549 827.398C431.782 839.26 413.253 846.889 392.962 850.284C379.867 852.48 366.851 852.093 353.914 849.122C352.573 848.81 351.175 848.888 349.887 849.345ZM643.009 525.652C646.341 508.963 654.03 494.613 666.075 482.603C679.51 469.202 695.317 459.606 713.496 453.813C715.12 453.293 716.727 452.73 718.319 452.126C718.394 452.097 718.475 452.089 718.554 452.101C718.633 452.114 718.707 452.146 718.77 452.196C718.832 452.246 718.881 452.311 718.911 452.385C718.941 452.459 718.951 452.54 718.94 452.619C716.892 465.393 712.424 476.475 705.537 485.865C690.297 506.639 669.662 520.109 643.63 526.273C643.545 526.291 643.456 526.287 643.373 526.262C643.289 526.237 643.214 526.192 643.152 526.13C643.09 526.069 643.045 525.993 643.02 525.909C642.995 525.826 642.991 525.738 643.009 525.652ZM600.586 518.204C593.816 515.34 587.491 511.313 581.612 506.125C577.844 502.804 574.602 499.069 571.885 494.921C571.27 493.977 571.503 493.674 572.586 494.014C585.077 497.908 594.659 505.69 601.335 517.361C601.918 518.369 601.669 518.65 600.586 518.204ZM714.085 862.443C672.75 887.058 628.014 893.015 579.877 880.315C541.8 869.61 511.39 847.87 488.648 815.096C475.107 795.585 466.33 774.476 462.319 751.771C456.291 717.565 459.809 684.981 472.873 654.022C476.969 644.324 482.052 635.03 488.123 626.139C515.948 585.45 555.638 561.907 607.193 555.509C608.774 555.307 609.177 555.901 608.402 557.291C604.73 563.88 603.048 571.164 603.356 579.142C603.369 579.403 603.28 579.659 603.108 579.855C602.936 580.051 602.693 580.172 602.433 580.193C592.85 580.829 584.037 583.004 575.992 586.718C573.297 587.97 571.021 589.344 569.163 590.84C566.871 592.697 565.454 594.744 564.913 596.983C564.192 599.986 565.232 602.601 568.033 604.829C572.48 608.341 577.616 610.961 583.442 612.691C587.05 613.752 592.654 614.834 600.252 615.937C622.729 619.216 644.723 617.269 666.234 610.097C669.354 609.057 672.108 607.407 674.496 605.147C676.841 602.94 677.945 600.527 677.807 597.906C677.648 594.776 676.045 592.208 672.999 590.203C664.987 584.93 656.046 581.721 646.177 580.575C641.89 580.076 639.618 579.811 639.364 579.779C636.509 579.418 633.628 579.179 630.72 579.063C630.59 579.056 630.463 579.022 630.347 578.961C630.232 578.901 630.131 578.817 630.051 578.714C629.971 578.612 629.914 578.493 629.884 578.366C629.853 578.24 629.851 578.108 629.876 577.981C631.638 569.429 635.915 562.914 642.707 558.437C644.893 556.994 647.286 556.411 649.886 556.686C686.148 560.591 717.353 574.681 743.502 598.956C772.145 625.821 788.97 658.711 793.979 697.629C795.868 712.334 795.837 727.103 793.884 741.936C792.515 752.301 790.09 762.619 786.609 772.89C773.492 811.616 749.318 841.467 714.085 862.443Z" fill="#0F1015"/>
<path d="M174 397.5C170.5 391.5 170.189 386.813 173.5 381.5C177.55 375 185.5 374.5 185.5 374.5C185.5 374.5 194.5 372.682 208 382.5C219 390.5 226 400.5 226 400.5C226 400.5 219.146 403.248 215 405.5C211.143 407.594 205.5 411.5 205.5 411.5C205.5 411.5 188.5 416.5 174 397.5Z" fill="#61D395" stroke="black"/>
<path d="M682 152C689.18 152 695 146.18 695 139C695 131.82 689.18 126 682 126C674.82 126 669 131.82 669 139C669 146.18 674.82 152 682 152Z" fill="#0E1013"/>
<path d="M884.308 189.512C882.39 188.39 880.853 186.578 879.698 184.077C878.913 182.356 878.5 181.463 878.458 181.399C874.992 174.611 871.775 167.717 868.807 160.716C867.217 156.953 866.676 153.778 867.185 151.192C867.916 147.504 869.914 144.768 873.179 142.982C873.232 142.95 876.205 141.812 882.098 139.567C888.299 137.205 894.574 135.089 900.923 133.218C905.47 131.871 909.074 131.641 911.735 132.528C916.801 134.228 919.218 138.493 918.985 145.323C918.889 148.135 917.215 150.609 913.961 152.747C908.459 156.371 902.847 159.812 897.123 163.073C896.928 163.182 896.776 163.356 896.694 163.564C896.613 163.772 896.607 164.001 896.678 164.211C897.685 167.14 898.809 170.026 900.049 172.869C902.889 179.379 902.052 184.488 897.537 188.197C895.661 189.737 893.578 190.64 891.288 190.907C888.734 191.217 886.407 190.752 884.308 189.512Z" fill="#0E1013"/>
<path d="M194.69 344.544C192.696 344.555 191.811 343.484 192.034 341.331C192.224 339.433 192.32 338.415 192.32 338.278C192.32 280.202 192.32 222.132 192.32 164.067C192.32 156.846 195.766 151.676 202.658 148.559C204.98 147.509 208.956 146.99 214.586 147C313.726 147.244 412.865 147.366 512.005 147.366C515.462 147.366 518.462 147.318 521.007 147.223C525.11 147.074 528.116 147.011 530.025 147.032C551.751 147.35 573.477 147.467 595.203 147.382C599.529 147.371 602.805 147.976 605.032 149.195C608.319 150.998 610.609 153.686 611.903 157.259C612.634 159.263 613 162.513 613 167.009C613 170.286 613 173.578 613 176.886C613 177.03 612.972 177.173 612.916 177.306C612.861 177.439 612.78 177.56 612.679 177.662C612.577 177.764 612.456 177.845 612.323 177.9C612.189 177.955 612.047 177.984 611.903 177.984C541.073 177.984 470.499 177.984 400.179 177.984C383.765 177.984 373.517 178.381 369.435 179.177C358.832 181.234 349.395 185.905 341.125 193.189C329.387 203.538 322.463 216.867 320.353 233.175C320.324 233.416 320.238 233.647 320.102 233.849C319.967 234.051 319.786 234.218 319.574 234.336C315.088 236.849 310.55 239.251 305.959 241.541C289.344 249.844 274.516 260.591 261.474 273.781C239.069 296.431 226.934 323.539 225.068 355.105C225.015 356.06 224.601 356.251 223.827 355.678C215.811 349.655 207.366 345.949 198.491 344.56C198.395 344.539 197.128 344.534 194.69 344.544Z" fill="#FFF4A6"/>
<path d="M800 575.003C799.227 575.406 798.703 575.3 798.428 574.685C798.142 574.038 797.878 573.613 797.634 573.412C773.288 554.039 745.761 541.578 715.053 536.029C709.739 535.074 704.404 534.273 699.048 533.626C711.888 524.237 722.33 513.463 730.375 501.304C746.825 476.425 752.181 448.84 746.443 418.55C745.978 416.057 745.486 413.945 744.967 412.216C744.289 409.945 743.178 408.163 741.633 406.869C738.118 403.94 733.9 403.521 728.978 405.611C727.612 406.195 725.68 407.792 723.182 410.402C720.896 412.789 719.091 414.513 717.768 415.574C709.702 422.046 700.805 427.154 691.077 430.899C660.665 442.612 637.536 462.696 621.69 491.151C621.648 491.23 621.588 491.298 621.514 491.349C621.44 491.4 621.355 491.432 621.266 491.443C621.178 491.454 621.087 491.443 621.004 491.412C620.92 491.38 620.845 491.329 620.785 491.262C601.964 470.298 578.057 461.343 549.064 464.399C541.697 465.173 537.6 468.59 536.774 474.648C536.489 476.801 536.838 480.021 537.822 484.308C538.553 487.48 539.331 490.636 540.156 493.777C544.242 509.256 552.573 522.125 565.148 532.385C566.398 533.403 566.249 534.141 564.704 534.597C534.716 543.265 508.194 558.925 485.139 581.576C484.882 581.83 484.54 581.981 484.177 581.998C483.814 582.016 483.456 581.9 483.17 581.671C445.815 551.604 413.365 516.656 385.822 476.828C378.741 466.6 368.61 453.248 355.432 436.772C355.347 436.666 354.336 435.615 352.399 433.621C350.091 431.255 348.959 428.12 349.001 424.215C349.467 382.329 349.599 321.722 349.398 242.394C349.356 224.581 358.089 213.176 375.597 208.178C378.423 207.372 384.377 206.98 393.46 207.001C512.015 207.255 630.571 207.34 749.127 207.255C753.552 207.255 759.77 207.43 767.784 207.781C774.092 208.056 779.639 209.929 784.424 213.398C789.981 217.419 794.009 222.443 796.507 228.469C798.01 232.076 798.777 237.233 798.809 243.938C798.883 256.691 798.862 276.334 798.746 302.869C798.46 370.006 798.592 454.882 799.143 557.498C799.185 566.166 799.471 572.001 800 575.003ZM404.749 403.367C409.533 407.431 414.853 410.598 420.706 412.868C438.966 419.934 457.654 425.435 476.771 429.371C487.516 431.589 494.909 432.846 498.953 433.143C506.786 433.727 514.328 432.973 521.579 430.883C535.34 426.915 546.01 419.409 553.589 408.365C559.813 399.293 563.174 389.389 563.672 378.653C564.349 364.001 559.072 350.951 547.841 339.503C544.973 336.586 540.384 333.095 534.075 329.032C501.366 307.951 467.98 291.437 433.917 279.49C425.904 276.679 417.88 273.894 409.846 271.135C403.96 269.109 399.832 268.096 397.461 268.096C391.342 268.085 387.833 271.512 386.934 278.376C386.669 280.424 387.013 282.626 387.966 284.981C389.077 287.718 390.014 289.803 390.776 291.235C395.984 300.964 399.26 311.075 400.605 321.568C401.272 326.735 400.112 331.307 397.127 335.286C394.756 338.458 393.55 340.076 393.507 340.14C388.5 348.415 386.103 356.945 386.314 365.73C386.674 380.668 392.819 393.214 404.749 403.367ZM467.403 491.676C465.678 497.808 463.953 504.169 462.227 510.757C461.073 515.192 460.862 518.529 461.592 520.767C462.82 524.491 465.736 526.852 470.341 527.849C475.358 528.942 479.132 527.356 481.662 523.091C483.165 520.545 484.356 517.855 485.234 515.022C488.823 503.373 492.66 491.814 496.746 480.345C498.482 475.465 498.027 471.417 495.38 468.202C493.75 466.218 490.744 464.701 486.362 463.651C477.184 461.444 467.949 459.518 458.655 457.874C455.49 457.312 453.034 457.222 451.287 457.603C448.514 458.208 446.339 459.577 444.761 461.709C441.808 465.72 441.231 469.603 443.031 473.359C444.153 475.693 446.651 478.117 450.525 480.631C455.214 483.676 460.465 486.541 466.276 489.225C466.723 489.433 467.082 489.794 467.289 490.243C467.495 490.692 467.536 491.2 467.403 491.676Z" fill="#FE9E9A"/>
<path d="M896.5 282C903.956 282 910 276.18 910 269C910 261.82 903.956 256 896.5 256C889.044 256 883 261.82 883 269C883 276.18 889.044 282 896.5 282Z" fill="#0E1013"/>
<path d="M554.18 277.983C565.026 271.343 576.154 265.371 587.563 260.067C589.73 259.062 591.977 258.767 594.304 259.181C595.961 259.482 597.857 260.471 599.992 262.149C603.509 264.915 607.014 267.852 610.509 270.96C610.686 271.116 610.822 271.311 610.905 271.529C610.989 271.747 611.018 271.982 610.99 272.213C610.962 272.444 610.877 272.665 610.744 272.858C610.61 273.051 610.432 273.21 610.222 273.322L573.923 292.574C573.277 292.912 572.548 293.054 571.832 292.982C571.117 292.909 570.451 292.626 569.923 292.17L554.116 278.527C554.075 278.493 554.043 278.45 554.023 278.401C554.003 278.352 553.996 278.299 554.002 278.245C554.008 278.192 554.028 278.14 554.059 278.095C554.09 278.049 554.131 278.011 554.18 277.983Z" fill="#FE9E9A"/>
<path d="M405.403 403.258C393.502 393.181 387.372 380.729 387.013 365.903C386.802 357.184 389.193 348.718 394.188 340.504C394.23 340.441 395.434 338.835 397.8 335.687C400.778 331.738 401.934 327.2 401.269 322.071C399.927 311.657 396.659 301.622 391.464 291.966C390.703 290.544 389.769 288.475 388.66 285.759C387.71 283.421 387.367 281.236 387.631 279.204C388.528 272.391 392.029 268.989 398.132 269C400.498 269 404.616 270.006 410.487 272.017C418.502 274.755 426.507 277.519 434.5 280.309C468.482 292.166 501.787 308.556 534.417 329.479C540.711 333.512 545.288 336.977 548.15 339.872C559.354 351.234 564.618 364.186 563.942 378.728C563.446 389.385 560.093 399.214 553.884 408.218C546.323 419.179 535.679 426.629 521.951 430.568C514.718 432.642 507.194 433.39 499.38 432.81C495.346 432.516 487.97 431.268 477.252 429.067C458.181 425.16 439.537 419.701 421.322 412.688C415.482 410.434 410.176 407.291 405.403 403.258ZM424.236 383.246C426.591 385.183 429.189 386.699 432.029 387.795C449.939 394.744 468.292 400.057 487.088 403.732C497.5 405.764 505.283 406.401 510.436 405.643C519.443 404.316 526.455 399.962 531.471 392.58C535.959 385.957 537.585 379.118 536.35 372.063C535.008 364.428 530.536 358.131 522.933 353.172C493.176 333.733 461.232 317.88 427.103 305.613C425.836 305.16 425.355 305.587 425.662 306.892C427.531 314.885 428.312 323.224 428.006 331.912C427.9 334.976 427.441 337.572 426.628 339.699C425.656 342.226 424.352 344.564 422.716 346.712C419.4 351.061 417.568 353.583 417.219 354.277C411.728 365.208 414.067 374.864 424.236 383.246Z" fill="#0F1015"/>
<path d="M279.709 297.966C290.883 286.053 303.858 276.427 318.636 269.086C318.759 269.025 318.896 268.995 319.034 269.001C319.172 269.006 319.306 269.046 319.424 269.117C319.541 269.188 319.639 269.287 319.707 269.405C319.775 269.524 319.812 269.658 319.813 269.794C320.057 288.428 320.062 306.596 319.829 324.297C319.776 328.439 319.368 331.229 318.605 332.665C312.223 344.683 302.793 355.888 290.316 366.28C280.637 374.333 269.829 381.212 257.892 386.917C257.772 386.974 257.64 387.003 257.506 387C257.373 386.997 257.241 386.963 257.123 386.9C257.004 386.838 256.901 386.748 256.822 386.639C256.743 386.53 256.69 386.404 256.668 386.272C254.092 370.196 254.5 354.524 257.892 339.256C261.38 323.516 268.652 309.753 279.709 297.966Z" fill="#61D395"/>
<path d="M423.871 382.958C413.737 374.452 411.406 364.653 416.878 353.562C417.226 352.856 419.051 350.297 422.356 345.884C423.987 343.704 425.287 341.332 426.255 338.767C427.065 336.609 427.523 333.975 427.628 330.865C427.933 322.049 427.155 313.586 425.292 305.476C424.987 304.151 425.466 303.718 426.728 304.177C460.741 316.626 492.575 332.714 522.231 352.44C529.808 357.472 534.265 363.863 535.601 371.61C536.833 378.769 535.212 385.71 530.739 392.431C525.741 399.922 518.753 404.34 509.776 405.686C504.641 406.456 496.885 405.809 486.508 403.747C467.776 400.018 449.486 394.627 431.638 387.574C428.807 386.463 426.218 384.924 423.871 382.958Z" fill="#FFF4A6"/>
<path d="M302.335 395.691C302.239 395.635 302.159 395.555 302.1 395.459C302.042 395.363 302.007 395.254 302.001 395.143C301.995 395.032 302.016 394.922 302.064 394.825C302.111 394.728 302.183 394.647 302.272 394.589C308.518 390.434 314.133 385.66 319.117 380.267C319.495 379.85 319.69 379.921 319.7 380.481L320 404.242C320.002 404.376 319.968 404.507 319.902 404.622C319.836 404.737 319.739 404.833 319.621 404.899C319.504 404.965 319.369 405 319.231 405C319.093 405 318.956 404.965 318.833 404.899L302.335 395.691Z" fill="#FFF4A6"/>
<path d="M413 556.216C410.213 558.589 408.51 558.324 407.893 555.421C407.769 554.883 407.507 554.417 407.143 554.086C405.388 552.497 403.824 550.749 402.451 548.842C400.749 546.458 399.297 544.641 398.095 543.391C395.648 540.827 393.334 538.152 391.153 535.366C390.057 533.968 388.104 531.96 385.296 529.343C383.019 527.224 381.359 524.893 380.317 522.351C379.444 520.2 378.231 518.717 376.678 517.901C376.205 517.655 375.843 517.272 375.657 516.821C375.05 515.306 374.119 514.029 372.864 512.991C372.449 512.652 372.135 512.244 371.922 511.767C370.805 509.288 369.257 507.148 367.278 505.347C366.289 504.446 365.464 503.551 364.805 502.661C364.209 501.856 363.454 500.881 362.539 499.737C362.198 499.313 361.964 498.831 361.836 498.291C361.06 494.901 359.874 492.814 358.278 492.03C356.859 491.349 355.705 490.228 354.99 488.835C353.128 485.17 351.282 482.315 349.453 480.27C347.165 477.706 345.681 475.873 345 474.771C343.532 472.419 341.936 470.158 340.212 467.986C338.191 465.464 336.515 463.282 335.185 461.438C330.515 454.976 325.131 449.144 319.035 443.942C314.897 440.403 308.194 435.683 298.927 429.782C290.608 424.474 282.341 421.137 274.128 419.771C256.988 416.921 240.731 419.32 225.358 426.969C225.23 427.033 224.666 427.25 223.666 427.621C222.379 428.098 221.602 429.072 221.336 430.545C221.301 430.752 221.218 430.946 221.092 431.112C220.967 431.278 220.805 431.411 220.618 431.499C216.075 433.723 212.596 436.054 210.181 438.491C210.022 438.65 209.176 439.905 207.644 442.257C206.782 443.581 205.628 444.636 204.181 445.42C203.691 445.684 203.314 446.029 203.048 446.453C202.143 447.851 201.196 449.218 200.207 450.553C199.132 451.993 198.276 453.408 197.638 454.796C194.563 461.491 191.653 468.256 188.908 475.089C188.515 476.064 188.19 477.764 187.935 480.19C187.743 482.044 187.1 483.739 186.004 485.276C185.674 485.731 185.482 486.197 185.429 486.674C184.567 494.164 184.817 501.554 186.179 508.843C187.711 517.011 188.541 521.9 188.669 523.511C189.456 533.183 189.44 542.867 188.621 552.561C188.515 553.874 188.589 556.03 188.844 559.029C189.025 561.253 188.844 563.436 188.302 565.576C187.174 569.983 186.594 572.266 186.562 572.425C186.062 574.978 185.371 577.479 184.488 579.926C183.573 582.458 182.812 584.916 182.206 587.3C180.993 592.11 179.173 596.665 176.748 600.966C175.035 604.007 173.785 606.862 172.997 609.532C171.37 615.03 169.561 619.904 167.571 624.152C164.316 631.113 161.816 637.777 160.071 644.144C160.06 644.197 159.592 646.517 158.666 651.104C158.166 653.573 157.411 655.978 156.4 658.319C155.762 659.802 155.368 664.167 155.219 671.414C155.209 671.816 155.06 672.309 154.773 672.892C154.23 673.951 154.076 675.482 154.31 677.484C154.916 682.888 154.991 690.521 154.533 700.384C154.405 703.171 154.767 705.983 155.618 708.823C158.427 718.125 160.135 727.644 160.741 737.38C160.773 737.889 160.95 738.385 161.252 738.81C164.624 743.599 166.486 748.917 166.837 754.765C166.852 754.986 166.932 755.201 167.07 755.386C167.208 755.571 167.398 755.719 167.619 755.814C169.46 756.598 170.274 758.235 170.061 760.725C169.784 764.147 170.747 767.129 172.949 769.672C174.833 771.865 176.072 773.538 176.668 774.693C179.232 779.694 181.785 783.81 184.328 787.041C192.371 797.254 201.18 806.757 210.756 815.551C212.915 817.532 214.91 819.121 216.74 820.318C225.156 825.817 233.736 831.045 242.481 836.003C244.45 837.126 249.056 838.917 256.302 841.374C257.036 841.629 258.116 842.185 259.541 843.043C260.626 843.689 261.786 844.145 263.02 844.41C266.201 845.067 267.952 845.448 268.271 845.554C274.59 847.726 281.043 849.389 287.629 850.544C288.799 850.745 290.687 850.83 293.294 850.798C295.251 850.777 297.167 850.999 299.039 851.466C301.912 852.175 304.226 852.514 305.981 852.483C309.843 852.398 313.71 852.456 317.583 852.657C317.168 854.003 317.567 854.655 318.78 854.612C320.248 854.559 321.711 854.57 323.169 854.644C298.582 856.318 274.479 852.091 250.86 841.962C215.708 826.887 189.041 802.853 170.859 769.862C160.699 751.407 154.443 731.304 152.091 709.554C149.23 683.163 151.996 657.609 160.39 632.893C164.199 621.673 168.864 609.516 174.386 596.421C184.035 573.506 187.637 549.653 185.19 524.862C184.509 517.965 183.78 511.073 183.003 504.187C181.397 489.842 183.466 476.096 189.211 462.948C195.212 449.218 205.234 437.765 219.278 428.59C241.322 414.171 264.648 412.137 289.256 422.488C300.013 427.012 309.731 433.178 318.413 440.986C326.892 448.624 334.552 457.015 341.393 466.158C350.82 478.755 360.193 491.399 369.513 504.091C382.929 522.367 397.424 539.741 413 556.216Z" fill="#FAD521"/>
<path d="M412.588 555.908C428.927 572.471 446.214 588.525 464.449 604.069C464.742 604.319 464.932 604.666 464.985 605.046C465.038 605.425 464.949 605.809 464.735 606.124C451.869 625.543 442.434 646.105 436.43 667.807C433.655 677.883 431.717 688.31 430.616 699.087C426.221 742.152 434.624 782.849 455.824 821.179C455.929 821.377 455.96 821.606 455.91 821.823C455.86 822.04 455.734 822.23 455.554 822.357L448.263 827.518C447.331 826.297 447.596 825.346 449.058 824.667C452.7 822.979 454.024 821.253 453.029 819.491C445.298 805.911 439.194 791.035 434.714 774.865C434.259 773.24 433.512 773.097 432.475 774.435C419.799 790.797 405.09 804.488 388.348 815.509C387.459 816.104 385.447 817.229 382.312 818.886C380.237 819.99 378.283 821.253 376.451 822.676L375.593 821.147C378.844 818.089 380.433 814.75 380.359 811.129C380.2 803.039 377.028 798.415 370.844 797.257C368.504 796.811 364.056 797.379 357.501 798.961C343.714 802.274 330.022 803.145 316.425 801.573C295.902 799.206 276.603 792.511 258.527 781.49C255.551 779.664 253.153 778.623 251.332 778.369C248.409 777.954 245.73 778.438 243.294 779.818C240.064 781.644 237.92 784.511 236.861 788.418C235.686 792.782 236.665 796.732 239.8 800.267C240.647 801.212 242.14 802.396 244.279 803.819C245.878 804.881 247.445 805.99 248.981 807.148C249.256 808.624 250.029 809.515 251.3 809.823C251.868 809.958 252.335 810.198 252.634 810.508C255.769 813.725 259.395 816.093 263.515 817.611C268.513 819.469 271.097 820.436 271.266 820.51C285.371 826.679 299.365 830.321 313.248 831.436C324.547 832.349 337.519 831.972 352.164 830.305C351.952 831.558 351.524 832.434 350.878 832.933C340.542 840.864 329.455 847.553 317.616 853C313.762 852.798 309.912 852.74 306.068 852.825C304.321 852.857 302.018 852.517 299.159 851.806C297.295 851.338 295.389 851.115 293.44 851.137C290.846 851.168 288.966 851.084 287.802 850.882C281.247 849.725 274.824 848.058 268.534 845.881C268.216 845.775 266.474 845.392 263.308 844.734C262.08 844.469 260.926 844.012 259.845 843.365C258.426 842.504 257.352 841.947 256.621 841.692C249.41 839.229 244.824 837.435 242.865 836.309C234.161 831.34 225.62 826.1 217.244 820.59C215.423 819.39 213.437 817.797 211.288 815.812C201.757 806.999 192.989 797.475 184.983 787.24C182.453 784.001 179.911 779.876 177.359 774.865C176.766 773.707 175.532 772.03 173.658 769.832C171.466 767.284 170.508 764.295 170.783 760.865C170.995 758.37 170.185 756.73 168.353 755.944C168.133 755.849 167.944 755.701 167.806 755.515C167.669 755.329 167.589 755.114 167.574 754.893C167.225 749.032 165.372 743.702 162.015 738.903C161.714 738.476 161.538 737.98 161.507 737.469C160.903 727.712 159.203 718.172 156.408 708.85C155.561 706.004 155.201 703.185 155.328 700.393C155.783 690.507 155.709 682.858 155.105 677.443C154.872 675.436 155.026 673.901 155.566 672.84C155.852 672.256 156 671.762 156.011 671.359C156.159 664.096 156.551 659.722 157.186 658.235C158.192 655.889 158.944 653.479 159.442 651.005C160.363 646.407 160.829 644.082 160.839 644.029C162.576 637.648 165.065 630.969 168.305 623.993C170.285 619.736 172.085 614.851 173.706 609.341C174.489 606.665 175.734 603.804 177.438 600.756C179.853 596.446 181.664 591.88 182.871 587.06C183.474 584.671 184.232 582.207 185.142 579.67C186.021 577.217 186.709 574.711 187.207 572.153C187.239 571.993 187.816 569.705 188.939 565.288C189.479 563.144 189.659 560.956 189.479 558.727C189.224 555.722 189.15 553.561 189.256 552.245C190.072 542.529 190.088 532.825 189.304 523.131C189.177 521.517 188.351 516.617 186.826 508.431C185.471 501.126 185.222 493.72 186.079 486.213C186.132 485.736 186.323 485.268 186.651 484.812C187.742 483.272 188.383 481.573 188.573 479.715C188.827 477.284 189.15 475.58 189.542 474.603C192.274 467.755 195.17 460.975 198.231 454.265C198.866 452.874 199.719 451.456 200.788 450.012C201.773 448.675 202.715 447.305 203.616 445.903C203.88 445.479 204.256 445.134 204.743 444.868C206.183 444.083 207.332 443.026 208.19 441.699C209.715 439.342 210.557 438.084 210.716 437.924C213.12 435.482 216.582 433.146 221.104 430.917C221.29 430.829 221.452 430.696 221.576 430.53C221.701 430.363 221.784 430.168 221.819 429.961C222.084 428.485 222.857 427.508 224.138 427.031C225.133 426.659 225.694 426.441 225.822 426.378C241.123 418.712 257.304 416.307 274.364 419.163C282.539 420.533 290.767 423.877 299.048 429.197C308.271 435.111 314.942 439.841 319.062 443.387C325.129 448.6 330.488 454.445 335.136 460.922C336.46 462.77 338.128 464.957 340.14 467.484C341.855 469.66 343.444 471.927 344.905 474.284C345.583 475.389 347.06 477.226 349.337 479.795C351.158 481.844 352.995 484.706 354.849 488.379C355.56 489.775 356.709 490.899 358.121 491.581C359.709 492.366 360.89 494.458 361.663 497.856C361.79 498.397 362.023 498.88 362.362 499.305C363.273 500.452 364.024 501.428 364.617 502.235C365.274 503.127 366.095 504.024 367.079 504.927C369.049 506.732 370.59 508.877 371.702 511.361C371.913 511.839 372.226 512.248 372.639 512.588C373.888 513.628 374.815 514.908 375.419 516.426C375.604 516.878 375.964 517.262 376.435 517.509C377.981 518.326 379.188 519.813 380.057 521.968C381.095 524.517 382.746 526.852 385.013 528.976C387.808 531.599 389.751 533.611 390.842 535.012C393.013 537.805 395.316 540.485 397.752 543.055C398.948 544.308 400.394 546.129 402.088 548.518C403.454 550.429 405.011 552.181 406.758 553.773C407.12 554.105 407.381 554.572 407.505 555.111C408.119 558.021 409.813 558.286 412.588 555.908Z" fill="#FECF0C"/>
<path d="M665.789 482.429C679.057 469.063 694.667 459.491 712.62 453.712C714.223 453.194 715.811 452.633 717.383 452.03C717.457 452.002 717.537 451.993 717.615 452.006C717.693 452.018 717.766 452.05 717.828 452.1C717.89 452.15 717.938 452.215 717.967 452.288C717.997 452.362 718.006 452.443 717.996 452.522C715.973 465.264 711.561 476.318 704.76 485.684C689.71 506.405 669.332 519.84 643.624 525.989C643.54 526.007 643.452 526.003 643.37 525.978C643.288 525.953 643.213 525.908 643.152 525.847C643.091 525.785 643.046 525.709 643.022 525.626C642.997 525.543 642.993 525.455 643.011 525.37C646.301 508.723 653.894 494.409 665.789 482.429Z" fill="#61D395"/>
<path d="M467.5 491.88C467.633 491.396 467.592 490.879 467.385 490.423C467.178 489.967 466.817 489.6 466.368 489.388C460.533 486.659 455.26 483.746 450.552 480.65C446.661 478.093 444.153 475.628 443.026 473.255C441.219 469.436 441.799 465.488 444.764 461.41C446.348 459.242 448.532 457.851 451.317 457.236C453.071 456.847 455.537 456.939 458.715 457.511C468.047 459.183 477.321 461.141 486.537 463.385C490.937 464.452 493.956 465.995 495.593 468.012C498.25 471.281 498.707 475.397 496.964 480.359C492.861 492.02 489.008 503.773 485.405 515.618C484.523 518.498 483.327 521.233 481.818 523.822C479.277 528.158 475.488 529.771 470.45 528.66C465.826 527.646 462.898 525.246 461.665 521.459C460.931 519.183 461.144 515.791 462.302 511.281C464.035 504.582 465.767 498.115 467.5 491.88Z" fill="#0F1015"/>
<path d="M581.031 506.48C577.275 503.096 574.042 499.29 571.334 495.062C570.72 494.099 570.953 493.791 572.032 494.137C584.485 498.106 594.039 506.037 600.694 517.931C601.276 518.959 601.028 519.245 599.948 518.791C593.198 515.872 586.892 511.768 581.031 506.48Z" fill="#61D395"/>
<path d="M699.644 534C704.999 534.641 710.332 535.435 715.644 536.381C746.341 541.879 773.859 554.227 798.197 573.423C798.441 573.623 798.705 574.043 798.991 574.685C799.266 575.294 799.79 575.399 800.562 575C804.022 580.561 810 587.5 810 587.5C810 587.5 814.853 600.772 816.038 610.087C815.139 625.193 815.456 640.274 816.99 655.328C817.019 655.598 816.984 655.863 816.892 656.091C816.799 656.32 816.652 656.504 816.467 656.622C816.086 656.863 815.678 656.989 815.244 657C798.388 609.377 768.05 573.539 724.231 549.485C720.686 547.541 716.088 545.333 710.438 542.862C705.771 540.823 701.11 538.762 696.454 536.681C695.882 536.428 695.851 536.16 696.359 535.877L699.644 534Z" fill="#E4705F"/>
<path d="M742.842 599.373C742.683 600.77 743.291 602.653 744.665 605.024C762.556 636.019 770.159 670.243 767.475 707.693C764.97 742.509 754.064 773.436 734.757 800.474C715.207 827.829 689.327 848.581 657.117 862.73C641.72 869.492 628.928 874.037 618.741 876.365C609.135 878.556 600.945 879.746 594.171 879.937C592.026 880 589.051 879.582 585.247 878.683C584.212 878.439 583.297 878.455 582.505 878.73C581.585 879.048 580.719 879.471 579.905 880C541.989 869.322 511.707 847.639 489.061 814.951C475.577 795.49 466.837 774.436 462.843 751.79C456.84 717.673 460.343 685.174 473.352 654.295C477.431 644.623 482.493 635.353 488.538 626.485C516.246 585.902 555.769 562.419 607.106 556.038C608.681 555.837 609.082 556.43 608.311 557.816C604.655 564.388 602.98 571.652 603.286 579.61C603.299 579.87 603.211 580.125 603.039 580.321C602.867 580.517 602.626 580.638 602.367 580.658C592.824 581.293 584.048 583.462 576.037 587.166C573.353 588.415 571.087 589.785 569.237 591.277C566.955 593.129 565.544 595.172 565.005 597.404C564.286 600.399 565.322 603.008 568.112 605.23C572.54 608.733 577.654 611.347 583.456 613.072C587.049 614.13 592.629 615.209 600.195 616.31C622.577 619.58 644.479 617.638 665.899 610.484C669.006 609.447 671.748 607.802 674.126 605.548C676.461 603.346 677.56 600.939 677.423 598.325C677.264 595.203 675.669 592.642 672.636 590.642C664.657 585.383 655.754 582.182 645.926 581.039C641.657 580.542 639.395 580.277 639.142 580.245C636.299 579.885 633.43 579.647 630.535 579.531C630.405 579.524 630.279 579.49 630.164 579.43C630.049 579.37 629.948 579.286 629.868 579.184C629.788 579.081 629.732 578.963 629.702 578.836C629.672 578.71 629.669 578.579 629.694 578.452C631.449 569.922 635.707 563.425 642.471 558.959C644.648 557.52 647.031 556.938 649.62 557.213C685.729 561.107 716.803 575.16 742.842 599.373Z" fill="#F4506D"/>
<path d="M743.249 599C771.825 625.786 788.612 658.58 793.61 697.383C795.495 712.046 795.463 726.771 793.515 741.561C792.149 751.896 789.73 762.184 786.257 772.424C773.17 811.037 749.051 840.801 713.899 861.715C672.66 886.258 628.027 892.198 580 879.535C580.815 879.006 581.683 878.583 582.605 878.266C583.399 877.991 584.315 877.975 585.352 878.218C589.164 879.118 592.144 879.535 594.294 879.472C601.08 879.281 609.286 878.091 618.91 875.902C629.117 873.574 641.934 869.031 657.36 862.271C689.632 848.127 715.562 827.382 735.149 800.035C754.493 773.006 765.42 742.09 767.929 707.285C770.618 669.847 763 635.635 745.075 604.649C743.699 602.279 743.09 600.396 743.249 599Z" fill="#DA3D56"/>
<path d="M815.847 610C817.235 610.573 818.57 611.603 819.852 613.09C830.944 625.939 839.657 639.887 845.993 654.935C853.366 672.446 858.17 690.647 860.406 709.538C864.898 747.671 859.897 784.419 845.405 819.78C826.611 865.633 796.047 900.671 753.713 924.893C728.849 939.112 701.591 947.549 671.938 950.204C617.633 955.057 571.591 937.726 533.813 898.213C532.033 896.344 531.095 894.783 531 893.53C563.916 910.52 597.928 918.352 633.037 917.024C662.88 915.899 691.468 908.248 718.801 894.071C728.282 889.155 737.255 883.532 745.72 877.203C782.502 849.721 806.752 813.451 818.469 768.394C828.014 731.663 826.876 694.661 815.053 657.388C815.487 657.377 815.895 657.25 816.276 657.005C816.462 656.886 816.609 656.701 816.702 656.47C816.795 656.239 816.829 655.972 816.801 655.699C815.265 640.493 814.947 625.26 815.847 610Z" fill="#5FD296"/>
<path d="M447.91 827.683C431.165 839.486 412.661 847.077 392.398 850.455C379.32 852.64 366.322 852.255 353.403 849.299C352.064 848.989 350.668 849.066 349.381 849.521C340.765 852.551 331.879 854.377 322.722 855C321.27 854.926 319.813 854.916 318.35 854.968C317.142 855.011 316.745 854.361 317.158 853.02C329.007 847.605 340.103 840.953 350.446 833.067C351.093 832.571 351.522 831.7 351.734 830.454C355.613 829.398 360.88 828.29 367.535 827.129C370.577 826.59 373.412 825.17 376.04 822.869C377.874 821.454 379.829 820.198 381.906 819.1C385.043 817.453 387.057 816.334 387.947 815.742C404.702 804.784 419.423 791.17 432.109 774.901C433.147 773.571 433.894 773.713 434.35 775.329C438.833 791.408 444.943 806.199 452.679 819.701C453.676 821.454 452.351 823.17 448.705 824.848C447.243 825.524 446.978 826.469 447.91 827.683Z" fill="#F2A00D"/>
<path d="M375.265 820.743C372.888 822.199 369.996 823.34 366.588 824.166C324.771 834.244 285.747 828.565 249.515 807.128C247.99 806.002 246.433 804.923 244.845 803.891C242.72 802.507 241.238 801.356 240.396 800.437C237.283 796.998 236.31 793.157 237.478 788.913C238.529 785.113 240.659 782.325 243.867 780.549C246.286 779.207 248.947 778.737 251.849 779.139C253.658 779.387 256.041 780.399 258.996 782.175C276.949 792.894 296.117 799.404 316.499 801.707C330.004 803.235 343.602 802.388 357.296 799.167C363.806 797.628 368.223 797.076 370.548 797.509C376.69 798.635 379.84 803.132 379.998 811C380.071 814.521 378.494 817.769 375.265 820.743Z" fill="#0E1013"/>
<path d="M249 807C285.632 829.245 325.088 835.138 367.366 824.68C370.811 823.823 373.736 822.639 376.139 821.128L377 822.671C374.363 825.007 371.518 826.448 368.467 826.994C361.789 828.173 356.504 829.298 352.612 830.37C337.906 832.052 324.88 832.432 313.534 831.511C299.594 830.386 285.542 826.71 271.378 820.485C271.208 820.41 268.613 819.435 263.594 817.56C259.458 816.027 255.816 813.638 252.669 810.391C252.368 810.079 251.899 809.836 251.329 809.7C250.053 809.389 249.276 808.489 249 807Z" fill="#FAD521"/>
</svg>
